<?xml version="1.0" encoding="UTF-8"?>
<svg width="2px" height="9px" viewBox="0 0 2 9" version="1.1" xmlns="http://www.w3.org/2000/svg" xmlns:xlink="http://www.w3.org/1999/xlink">
    <!-- Generator: Sketch 48.2 (47327) - http://www.bohemiancoding.com/sketch -->
    <title>Icon</title>
    <desc>Created with Sketch.</desc>
    <defs>
        <path d="M0.999603644,6.0024233 C0.446603644,6.0024233 -0.000396355936,5.5548265 -0.000396355936,5.00108819 L-0.000396355936,1.00375841 C-0.000396355936,0.450020095 0.446603644,0.00242329924 0.999603644,0.00242329924 C1.55260364,0.00242329924 1.99960364,0.450020095 1.99960364,1.00375841 L1.99960364,5.00108819 C1.99960364,5.5548265 1.55260364,6.0024233 0.999603644,6.0024233 M1.00510364,8.99842152 C0.453103644,8.99842152 0.000103644064,8.55122277 0.000103644064,7.99797688 C0.000103644064,7.44473099 0.443103644,6.99753224 0.995103644,6.99753224 L1.00510364,6.99753224 C1.55810364,6.99753224 2.00510364,7.44473099 2.00510364,7.99797688 C2.00510364,8.55122277 1.55810364,8.99842152 1.00510364,8.99842152" id="path-1"></path>
    </defs>
    <g id="Page-1" stroke="none" stroke-width="1" fill="none" fill-rule="evenodd">
        <mask id="mask-2" fill="white">
            <use xlink:href="#path-1"></use>
        </mask>
        <use id="Icon" fill="#FFFFFF" xlink:href="#path-1"></use>
    </g>
</svg>