<?xml version="1.0" encoding="UTF-8"?>
<svg width="14px" height="10px" viewBox="0 0 14 10" version="1.1" xmlns="http://www.w3.org/2000/svg" xmlns:xlink="http://www.w3.org/1999/xlink">
    <!-- Generator: Sketch 48.1 (47250) - http://www.bohemiancoding.com/sketch -->
    <title>Face</title>
    <desc>Created with Sketch.</desc>
    <defs></defs>
    <g id="Page-1" stroke="none" stroke-width="1" fill="none" fill-rule="evenodd">
        <path d="M2,4 C0.8954305,4 0,3.1045695 0,2 C0,0.8954305 0.8954305,0 2,0 C3.1045695,0 4,0.8954305 4,2 C4,3.1045695 3.1045695,4 2,4 Z M12,4 C10.8954305,4 10,3.1045695 10,2 C10,0.8954305 10.8954305,0 12,0 C13.1045695,0 14,0.8954305 14,2 C14,3.1045695 13.1045695,4 12,4 Z M10.9524406,9.36134 C10.7169439,9.36134 10.4814471,9.28634 10.2857231,9.13234 C8.44256843,7.67134 5.55799471,7.67134 3.71484002,9.13234 C3.27001279,9.48434 2.6095752,9.42434 2.24115359,8.99934 C1.87168533,8.57434 1.93343782,7.94334 2.37931169,7.59034 C3.67506723,6.56534 5.31621803,6.00034 7.00028157,6.00034 C8.68434511,6.00034 10.3244493,6.56534 11.6212514,7.59034 C12.0660787,7.94334 12.1278312,8.57434 11.7594095,8.99934 C11.5521724,9.23834 11.2538765,9.36134 10.9524406,9.36134 Z" id="Face" fill="#B39B2D"></path>
    </g>
</svg>