<?xml version="1.0" encoding="UTF-8"?>
<svg width="22px" height="22px" viewBox="0 0 22 22" version="1.1" xmlns="http://www.w3.org/2000/svg" xmlns:xlink="http://www.w3.org/1999/xlink">
    <!-- Generator: Sketch 48.2 (47327) - http://www.bohemiancoding.com/sketch -->
    <title>Combined Shape</title>
    <desc>Created with Sketch.</desc>
    <defs></defs>
    <g id="Page-1" stroke="none" stroke-width="1" fill="none" fill-rule="evenodd">
        <path d="M11,0 C11.5522847,-1.01453063e-16 12,0.44771525 12,1 L12,4 C12,4.55228475 11.5522847,5 11,5 C10.4477153,5 10,4.55228475 10,4 L10,1 C10,0.44771525 10.4477153,1.01453063e-16 11,0 Z M5,11 C5,11.5522847 4.55228475,12 4,12 L1,12 C0.44771525,12 0,11.5522847 0,11 C0,10.4477153 0.44771525,10 1,10 L4,10 C4.55228475,10 5,10.4477153 5,11 Z M11,17 C11.5522847,17 12,17.4477153 12,18 L12,21 C12,21.5522847 11.5522847,22 11,22 C10.4477153,22 10,21.5522847 10,21 L10,18 C10,17.4477153 10.4477153,17 11,17 Z M22,11 C22,11.5522847 21.5522847,12 21,12 L18,12 C17.4477153,12 17,11.5522847 17,11 C17,10.4477153 17.4477153,10 18,10 L21,10 C21.5522847,10 22,10.4477153 22,11 Z M3.22182541,3.22182541 C3.6123497,2.83130112 4.24551468,2.83130112 4.63603897,3.22182541 L6.75735931,5.34314575 C7.1478836,5.73367004 7.1478836,6.36683502 6.75735931,6.75735931 C6.36683502,7.1478836 5.73367004,7.1478836 5.34314575,6.75735931 L3.22182541,4.63603897 C2.83130112,4.24551468 2.83130112,3.6123497 3.22182541,3.22182541 Z M6.75735931,15.2426407 C7.1478836,15.633165 7.1478836,16.26633 6.75735931,16.6568542 L4.63603897,18.7781746 C4.24551468,19.1686989 3.6123497,19.1686989 3.22182541,18.7781746 C2.83130112,18.3876503 2.83130112,17.7544853 3.22182541,17.363961 L5.34314575,15.2426407 C5.73367004,14.8521164 6.36683502,14.8521164 6.75735931,15.2426407 Z M15.2426407,15.2426407 C15.633165,14.8521164 16.26633,14.8521164 16.6568542,15.2426407 L18.7781746,17.363961 C19.1686989,17.7544853 19.1686989,18.3876503 18.7781746,18.7781746 C18.3876503,19.1686989 17.7544853,19.1686989 17.363961,18.7781746 L15.2426407,16.6568542 C14.8521164,16.26633 14.8521164,15.633165 15.2426407,15.2426407 Z M18.7781746,3.22182541 C19.1686989,3.6123497 19.1686989,4.24551468 18.7781746,4.63603897 L16.6568542,6.75735931 C16.26633,7.1478836 15.633165,7.1478836 15.2426407,6.75735931 C14.8521164,6.36683502 14.8521164,5.73367004 15.2426407,5.34314575 L17.363961,3.22182541 C17.7544853,2.83130112 18.3876503,2.83130112 18.7781746,3.22182541 Z M11,15 C8.790861,15 7,13.209139 7,11 C7,8.790861 8.790861,7 11,7 C13.209139,7 15,8.790861 15,11 C15,13.209139 13.209139,15 11,15 Z" id="Combined-Shape" fill="#FFDD66"></path>
    </g>
</svg>