<?xml version="1.0" encoding="UTF-8"?>
<svg width="14px" height="17px" viewBox="0 0 14 17" version="1.1" xmlns="http://www.w3.org/2000/svg" xmlns:xlink="http://www.w3.org/1999/xlink">
    <!-- Generator: Sketch 48.2 (47327) - http://www.bohemiancoding.com/sketch -->
    <title>Combined Shape</title>
    <desc>Created with Sketch.</desc>
    <defs></defs>
    <g id="Page-1" stroke="none" stroke-width="1" fill="none" fill-rule="evenodd">
        <path d="M11.6767324,4.18276263 C12.1077643,4.60994232 12.1077546,5.3005462 11.6767108,5.72773775 C11.245667,6.1549293 10.5488354,6.1549389 10.1178036,5.72775921 L8,3.73013413 L8,11.9076874 C7.99999153,12.5117727 7.60941998,12.9999916 6.99988726,13 C6.69590036,13.0000042 6.41997549,12.8779549 6.22043814,12.6802009 C6.02090079,12.4824468 5.99999578,12.2089879 6,11.9077178 L6,3.73016447 L3.88217476,5.72784504 C3.45113093,6.15503659 2.75429941,6.15504618 2.32326756,5.7278665 C1.8922357,5.30068681 1.89224538,4.61008293 2.32328921,4.18289138 L6.22061135,0.320399944 C6.65165518,-0.106791609 7.3484867,-0.106801201 7.77951856,0.320378486 L11.6767324,4.18276263 Z M1,15 L13,15 C13.5522847,15 14,15.4477153 14,16 C14,16.5522847 13.5522847,17 13,17 L1,17 C0.44771525,17 6.76353751e-17,16.5522847 0,16 C-6.76353751e-17,15.4477153 0.44771525,15 1,15 Z" id="Combined-Shape" fill="#FFFFFF"></path>
    </g>
</svg>